<mxfile host="app.diagrams.net" modified="2023-11-13T15:37:45.311Z" agent="Mozilla/5.0 (Windows NT 10.0; WOW64) AppleWebKit/537.36 (KHTML, like Gecko) Chrome/86.0.4240.198 Safari/537.36" etag="tepPxIffCzFzTj99NQ-Z" version="22.1.0" type="github">
  <diagram id="6a731a19-8d31-9384-78a2-239565b7b9f0" name="Page-1">
    <mxGraphModel dx="1434" dy="764" grid="1" gridSize="10" guides="1" tooltips="1" connect="1" arrows="1" fold="1" page="1" pageScale="1" pageWidth="1169" pageHeight="827" background="none" math="0" shadow="0">
      <root>
        <mxCell id="0" />
        <mxCell id="1" parent="0" />
        <mxCell id="1745" value="" style="edgeStyle=none;rounded=1;jumpStyle=none;html=1;shadow=0;labelBackgroundColor=none;startArrow=none;startFill=0;endArrow=classic;endFill=1;jettySize=auto;orthogonalLoop=1;strokeColor=#b85450;strokeWidth=3;fontFamily=Courier New;fontSize=16;fontColor=default;spacing=5;fontStyle=1;exitX=0.25;exitY=0;exitDx=0;exitDy=0;entryX=0.5;entryY=1;entryDx=0;entryDy=0;fillColor=#f8cecc;" parent="1" source="BuEvshFohfWNwcxQu9Q5-1786" target="1764" edge="1">
          <mxGeometry relative="1" as="geometry">
            <mxPoint x="584.9999999999998" y="208" as="sourcePoint" />
            <mxPoint x="536" y="130" as="targetPoint" />
            <Array as="points">
              <mxPoint x="549" y="270" />
              <mxPoint x="320" y="270" />
            </Array>
          </mxGeometry>
        </mxCell>
        <mxCell id="1746" value="" style="edgeStyle=none;rounded=1;jumpStyle=none;html=1;shadow=0;labelBackgroundColor=none;startArrow=none;startFill=0;endArrow=classic;endFill=1;jettySize=auto;orthogonalLoop=1;strokeColor=#666666;strokeWidth=3;fontFamily=Courier New;fontSize=16;fontColor=default;spacing=5;fontStyle=1;fillColor=#f5f5f5;entryX=0.5;entryY=1;entryDx=0;entryDy=0;exitX=1;exitY=0.5;exitDx=0;exitDy=0;" parent="1" source="BuEvshFohfWNwcxQu9Q5-1799" target="1771" edge="1">
          <mxGeometry relative="1" as="geometry">
            <mxPoint x="600" y="560" as="sourcePoint" />
            <Array as="points">
              <mxPoint x="720" y="540" />
            </Array>
          </mxGeometry>
        </mxCell>
        <mxCell id="1747" value="" style="edgeStyle=none;rounded=1;jumpStyle=none;html=1;shadow=0;labelBackgroundColor=none;startArrow=none;startFill=0;endArrow=classic;endFill=1;jettySize=auto;orthogonalLoop=1;strokeWidth=3;fontFamily=Courier New;fontSize=16;fontColor=default;spacing=5;fontStyle=1;entryX=0.5;entryY=0;entryDx=0;entryDy=0;fillColor=#f5f5f5;strokeColor=#666666;" parent="1" source="1749" target="BuEvshFohfWNwcxQu9Q5-1799" edge="1">
          <mxGeometry relative="1" as="geometry">
            <mxPoint x="571.7728531855955" y="568.5" as="targetPoint" />
          </mxGeometry>
        </mxCell>
        <mxCell id="1749" value="Kotlin" style="rounded=1;whiteSpace=wrap;html=1;shadow=0;labelBackgroundColor=none;strokeWidth=3;fontFamily=Courier New;fontSize=20;align=center;fontStyle=1;spacing=5;arcSize=7;perimeterSpacing=2;" parent="1" vertex="1">
          <mxGeometry x="530" y="400" width="100" height="40" as="geometry" />
        </mxCell>
        <mxCell id="1764" value="Software" style="rounded=1;whiteSpace=wrap;html=1;shadow=0;labelBackgroundColor=none;strokeColor=#b85450;strokeWidth=3;fillColor=#f8cecc;fontFamily=Courier New;fontSize=16;align=center;spacing=5;fontStyle=1;arcSize=7;perimeterSpacing=2;" parent="1" vertex="1">
          <mxGeometry x="260" y="200" width="120" height="40" as="geometry" />
        </mxCell>
        <mxCell id="1765" value="Uber" style="rounded=1;whiteSpace=wrap;html=1;shadow=0;labelBackgroundColor=none;strokeColor=#b85450;strokeWidth=3;fillColor=#f8cecc;fontFamily=Courier New;fontSize=16;align=center;spacing=5;arcSize=7;perimeterSpacing=2;fontStyle=1;" parent="1" vertex="1">
          <mxGeometry x="340" y="120" width="120" height="40" as="geometry" />
        </mxCell>
        <mxCell id="1766" value="" style="edgeStyle=none;rounded=1;jumpStyle=none;html=1;shadow=0;labelBackgroundColor=none;startArrow=none;startFill=0;endArrow=classic;endFill=1;jettySize=auto;orthogonalLoop=1;strokeColor=#b85450;strokeWidth=3;fontFamily=Courier New;fontSize=16;fontColor=default;spacing=5;fontStyle=1;entryX=0.5;entryY=1;entryDx=0;entryDy=0;exitX=0.75;exitY=0;exitDx=0;exitDy=0;fillColor=#f8cecc;" parent="1" source="1764" target="1765" edge="1">
          <mxGeometry relative="1" as="geometry">
            <Array as="points">
              <mxPoint x="351" y="190" />
              <mxPoint x="400" y="190" />
            </Array>
          </mxGeometry>
        </mxCell>
        <mxCell id="1767" value="Netflix" style="rounded=1;whiteSpace=wrap;html=1;shadow=0;labelBackgroundColor=none;strokeColor=#b85450;strokeWidth=3;fillColor=#f8cecc;fontFamily=Courier New;fontSize=16;align=center;spacing=5;arcSize=7;perimeterSpacing=2;fontStyle=1;" parent="1" vertex="1">
          <mxGeometry x="260" y="60" width="120" height="40" as="geometry" />
        </mxCell>
        <mxCell id="1768" value="" style="edgeStyle=none;rounded=1;jumpStyle=none;html=1;shadow=0;labelBackgroundColor=none;startArrow=none;startFill=0;endArrow=classic;endFill=1;jettySize=auto;orthogonalLoop=1;strokeColor=#b85450;strokeWidth=3;fontFamily=Courier New;fontSize=16;fontColor=default;spacing=5;fontStyle=1;entryX=0.5;entryY=1;entryDx=0;entryDy=0;exitX=0.5;exitY=0;exitDx=0;exitDy=0;fillColor=#f8cecc;" parent="1" source="1764" target="1767" edge="1">
          <mxGeometry relative="1" as="geometry">
            <mxPoint x="340" y="170" as="sourcePoint" />
          </mxGeometry>
        </mxCell>
        <mxCell id="1769" value="Evernote" style="rounded=1;whiteSpace=wrap;html=1;shadow=0;labelBackgroundColor=none;strokeColor=#b85450;strokeWidth=3;fillColor=#f8cecc;fontFamily=Courier New;fontSize=16;align=center;spacing=5;arcSize=7;perimeterSpacing=2;fontStyle=1;" parent="1" vertex="1">
          <mxGeometry x="180" y="120" width="120" height="40" as="geometry" />
        </mxCell>
        <mxCell id="1770" value="" style="edgeStyle=none;rounded=1;jumpStyle=none;html=1;shadow=0;labelBackgroundColor=none;startArrow=none;startFill=0;endArrow=classic;endFill=1;jettySize=auto;orthogonalLoop=1;strokeColor=#b85450;strokeWidth=3;fontFamily=Courier New;fontSize=16;fontColor=default;spacing=5;fontStyle=1;entryX=0.5;entryY=1;entryDx=0;entryDy=0;exitX=0.25;exitY=0;exitDx=0;exitDy=0;fillColor=#f8cecc;" parent="1" source="1764" target="1769" edge="1">
          <mxGeometry relative="1" as="geometry">
            <Array as="points">
              <mxPoint x="289" y="190" />
              <mxPoint x="240" y="190" />
            </Array>
          </mxGeometry>
        </mxCell>
        <mxCell id="1771" value="Types" style="rounded=1;whiteSpace=wrap;html=1;shadow=0;labelBackgroundColor=none;strokeWidth=3;fontFamily=Courier New;fontSize=16;align=center;spacing=5;fontStyle=1;arcSize=7;perimeterSpacing=2;fillColor=#f5f5f5;strokeColor=#666666;fontColor=#333333;" parent="1" vertex="1">
          <mxGeometry x="660" y="440" width="120" height="40" as="geometry" />
        </mxCell>
        <mxCell id="1775" value="" style="edgeStyle=none;rounded=1;jumpStyle=none;html=1;shadow=0;labelBackgroundColor=none;startArrow=none;startFill=0;jettySize=auto;orthogonalLoop=1;strokeWidth=3;fontFamily=Courier New;fontSize=16;fontColor=default;spacing=5;fontStyle=1;exitX=1;exitY=0.5;exitDx=0;exitDy=0;entryX=0.5;entryY=0;entryDx=0;entryDy=0;fillColor=#e1d5e7;strokeColor=#9673a6;" parent="1" source="1771" target="BuEvshFohfWNwcxQu9Q5-1802" edge="1">
          <mxGeometry relative="1" as="geometry">
            <mxPoint x="860" y="470" as="targetPoint" />
            <Array as="points">
              <mxPoint x="790" y="460" />
              <mxPoint x="790" y="520" />
              <mxPoint x="790" y="550" />
            </Array>
          </mxGeometry>
        </mxCell>
        <mxCell id="1777" value="" style="edgeStyle=none;rounded=1;jumpStyle=none;html=1;shadow=0;labelBackgroundColor=none;startArrow=none;startFill=0;jettySize=auto;orthogonalLoop=1;strokeWidth=3;fontFamily=Courier New;fontSize=16;fontColor=default;spacing=5;fontStyle=1;exitX=1;exitY=0.5;exitDx=0;exitDy=0;entryX=0;entryY=0.5;entryDx=0;entryDy=0;fillColor=#dae8fc;strokeColor=#6c8ebf;" parent="1" source="1771" target="BuEvshFohfWNwcxQu9Q5-1801" edge="1">
          <mxGeometry relative="1" as="geometry">
            <mxPoint x="880" y="410" as="targetPoint" />
            <Array as="points">
              <mxPoint x="790" y="460" />
              <mxPoint x="790" y="540" />
            </Array>
          </mxGeometry>
        </mxCell>
        <mxCell id="1779" value="" style="edgeStyle=none;rounded=1;jumpStyle=none;html=1;shadow=0;labelBackgroundColor=none;startArrow=none;startFill=0;jettySize=auto;orthogonalLoop=1;strokeWidth=3;fontFamily=Courier New;fontSize=16;fontColor=default;spacing=5;fontStyle=1;entryX=0.5;entryY=1;entryDx=0;entryDy=0;exitX=1;exitY=0.5;exitDx=0;exitDy=0;fillColor=#d5e8d4;strokeColor=#82b366;" parent="1" source="1771" target="BuEvshFohfWNwcxQu9Q5-1800" edge="1">
          <mxGeometry relative="1" as="geometry">
            <mxPoint x="912.6116838487969" y="306.5" as="targetPoint" />
            <Array as="points">
              <mxPoint x="790" y="460" />
              <mxPoint x="790" y="390" />
              <mxPoint x="860" y="390" />
            </Array>
          </mxGeometry>
        </mxCell>
        <mxCell id="BuEvshFohfWNwcxQu9Q5-1785" value="" style="edgeStyle=none;rounded=1;jumpStyle=none;html=1;shadow=0;labelBackgroundColor=none;startArrow=none;startFill=0;endArrow=classic;endFill=1;jettySize=auto;orthogonalLoop=1;strokeWidth=3;fontFamily=Courier New;fontSize=16;fontColor=default;spacing=5;fontStyle=1;exitX=0.5;exitY=0;exitDx=0;exitDy=0;entryX=0.5;entryY=1;entryDx=0;entryDy=0;fillColor=#f5f5f5;strokeColor=#666666;" parent="1" source="1749" target="BuEvshFohfWNwcxQu9Q5-1786" edge="1">
          <mxGeometry relative="1" as="geometry">
            <mxPoint x="645" y="267.9999999999999" as="sourcePoint" />
            <mxPoint x="665" y="190" as="targetPoint" />
          </mxGeometry>
        </mxCell>
        <mxCell id="BuEvshFohfWNwcxQu9Q5-1786" value="Environment" style="rounded=1;whiteSpace=wrap;html=1;shadow=0;labelBackgroundColor=none;strokeWidth=3;fontFamily=Courier New;fontSize=16;align=center;spacing=5;fontStyle=1;arcSize=7;perimeterSpacing=2;fillColor=#f5f5f5;strokeColor=#666666;fontColor=#333333;" parent="1" vertex="1">
          <mxGeometry x="520" y="280" width="120" height="40" as="geometry" />
        </mxCell>
        <mxCell id="BuEvshFohfWNwcxQu9Q5-1789" value="" style="edgeStyle=none;rounded=1;jumpStyle=none;html=1;shadow=0;labelBackgroundColor=none;startArrow=none;startFill=0;endArrow=classic;endFill=1;jettySize=auto;orthogonalLoop=1;strokeColor=#6c8ebf;strokeWidth=3;fontFamily=Courier New;fontSize=16;fontColor=default;spacing=5;fontStyle=1;entryX=0.5;entryY=1;entryDx=0;entryDy=0;exitX=0.75;exitY=0;exitDx=0;exitDy=0;fillColor=#dae8fc;" parent="1" source="BuEvshFohfWNwcxQu9Q5-1786" target="BuEvshFohfWNwcxQu9Q5-1790" edge="1">
          <mxGeometry relative="1" as="geometry">
            <mxPoint x="630" y="260" as="sourcePoint" />
            <mxPoint x="640" y="260" as="targetPoint" />
            <Array as="points">
              <mxPoint x="611" y="270" />
              <mxPoint x="840" y="270" />
            </Array>
          </mxGeometry>
        </mxCell>
        <mxCell id="BuEvshFohfWNwcxQu9Q5-1790" value="IDE" style="rounded=1;whiteSpace=wrap;html=1;shadow=0;labelBackgroundColor=none;strokeColor=#6c8ebf;strokeWidth=3;fillColor=#dae8fc;fontFamily=Courier New;fontSize=16;align=center;spacing=5;fontStyle=1;arcSize=7;perimeterSpacing=2;" parent="1" vertex="1">
          <mxGeometry x="780" y="200" width="120" height="40" as="geometry" />
        </mxCell>
        <mxCell id="BuEvshFohfWNwcxQu9Q5-1791" value="VS Code" style="rounded=1;whiteSpace=wrap;html=1;shadow=0;labelBackgroundColor=none;strokeColor=#6c8ebf;strokeWidth=3;fillColor=#dae8fc;fontFamily=Courier New;fontSize=16;align=center;spacing=5;arcSize=7;perimeterSpacing=2;fontStyle=1" parent="1" vertex="1">
          <mxGeometry x="860" y="120" width="120" height="40" as="geometry" />
        </mxCell>
        <mxCell id="BuEvshFohfWNwcxQu9Q5-1792" value="" style="edgeStyle=none;rounded=1;jumpStyle=none;html=1;shadow=0;labelBackgroundColor=none;startArrow=none;startFill=0;endArrow=classic;endFill=1;jettySize=auto;orthogonalLoop=1;strokeColor=#6c8ebf;strokeWidth=3;fontFamily=Courier New;fontSize=16;fontColor=default;spacing=5;fontStyle=1;exitX=0.75;exitY=0;exitDx=0;exitDy=0;fillColor=#dae8fc;entryX=0.5;entryY=1;entryDx=0;entryDy=0;" parent="1" source="BuEvshFohfWNwcxQu9Q5-1790" target="BuEvshFohfWNwcxQu9Q5-1791" edge="1">
          <mxGeometry relative="1" as="geometry">
            <mxPoint x="900" y="150" as="sourcePoint" />
            <Array as="points">
              <mxPoint x="871" y="190" />
              <mxPoint x="920" y="190" />
            </Array>
          </mxGeometry>
        </mxCell>
        <mxCell id="BuEvshFohfWNwcxQu9Q5-1793" value="Android Studio" style="rounded=1;whiteSpace=wrap;html=1;shadow=0;labelBackgroundColor=none;strokeColor=#6c8ebf;strokeWidth=3;fillColor=#dae8fc;fontFamily=Courier New;fontSize=16;align=center;spacing=5;arcSize=7;perimeterSpacing=2;fontStyle=1" parent="1" vertex="1">
          <mxGeometry x="780" y="60" width="120" height="40" as="geometry" />
        </mxCell>
        <mxCell id="BuEvshFohfWNwcxQu9Q5-1794" value="" style="edgeStyle=none;rounded=1;jumpStyle=none;html=1;shadow=0;labelBackgroundColor=none;startArrow=none;startFill=0;endArrow=classic;endFill=1;jettySize=auto;orthogonalLoop=1;strokeColor=#6c8ebf;strokeWidth=3;fontFamily=Courier New;fontSize=16;fontColor=default;spacing=5;fontStyle=1;exitX=0.5;exitY=0;exitDx=0;exitDy=0;entryX=0.5;entryY=1;entryDx=0;entryDy=0;fillColor=#dae8fc;" parent="1" source="BuEvshFohfWNwcxQu9Q5-1790" target="BuEvshFohfWNwcxQu9Q5-1793" edge="1">
          <mxGeometry relative="1" as="geometry">
            <mxPoint x="860" y="160" as="sourcePoint" />
            <mxPoint x="850" y="140" as="targetPoint" />
          </mxGeometry>
        </mxCell>
        <mxCell id="BuEvshFohfWNwcxQu9Q5-1795" value="" style="edgeStyle=none;rounded=1;jumpStyle=none;html=1;shadow=0;labelBackgroundColor=none;startArrow=none;startFill=0;endArrow=classic;endFill=1;jettySize=auto;orthogonalLoop=1;strokeColor=#6c8ebf;strokeWidth=3;fontFamily=Courier New;fontSize=16;fontColor=default;spacing=5;fontStyle=1;entryX=0.5;entryY=1;entryDx=0;entryDy=0;exitX=0.25;exitY=0;exitDx=0;exitDy=0;fillColor=#dae8fc;" parent="1" source="BuEvshFohfWNwcxQu9Q5-1790" target="BuEvshFohfWNwcxQu9Q5-1796" edge="1">
          <mxGeometry relative="1" as="geometry">
            <mxPoint x="780" y="160" as="sourcePoint" />
            <mxPoint x="720" y="153" as="targetPoint" />
            <Array as="points">
              <mxPoint x="809" y="190" />
              <mxPoint x="760" y="190" />
            </Array>
          </mxGeometry>
        </mxCell>
        <mxCell id="BuEvshFohfWNwcxQu9Q5-1796" value="IntelliJ IDEA" style="rounded=1;whiteSpace=wrap;html=1;shadow=0;labelBackgroundColor=none;strokeColor=#6c8ebf;strokeWidth=3;fillColor=#dae8fc;fontFamily=Courier New;fontSize=16;align=center;spacing=5;arcSize=7;perimeterSpacing=2;fontStyle=1" parent="1" vertex="1">
          <mxGeometry x="700" y="120" width="120" height="40" as="geometry" />
        </mxCell>
        <mxCell id="BuEvshFohfWNwcxQu9Q5-1799" value="Language" style="rounded=1;whiteSpace=wrap;html=1;shadow=0;labelBackgroundColor=none;strokeWidth=3;fontFamily=Courier New;fontSize=16;align=center;spacing=5;fontStyle=1;arcSize=7;perimeterSpacing=2;fillColor=#f5f5f5;fontColor=#333333;strokeColor=#666666;" parent="1" vertex="1">
          <mxGeometry x="520" y="520" width="120" height="39.5" as="geometry" />
        </mxCell>
        <mxCell id="BuEvshFohfWNwcxQu9Q5-1800" value="FP" style="rounded=1;whiteSpace=wrap;html=1;shadow=0;labelBackgroundColor=none;strokeColor=#82b366;strokeWidth=3;fillColor=#d5e8d4;fontFamily=Courier New;fontSize=16;align=center;spacing=5;fontStyle=1;arcSize=7;perimeterSpacing=2;" parent="1" vertex="1">
          <mxGeometry x="800" y="320" width="120" height="40" as="geometry" />
        </mxCell>
        <mxCell id="BuEvshFohfWNwcxQu9Q5-1801" value="Integer" style="rounded=1;whiteSpace=wrap;html=1;shadow=0;labelBackgroundColor=none;strokeColor=#6c8ebf;strokeWidth=3;fillColor=#dae8fc;fontFamily=Courier New;fontSize=16;align=center;spacing=5;fontStyle=1;arcSize=7;perimeterSpacing=2;" parent="1" vertex="1">
          <mxGeometry x="840" y="520" width="120" height="40" as="geometry" />
        </mxCell>
        <mxCell id="BuEvshFohfWNwcxQu9Q5-1802" value="Other" style="rounded=1;whiteSpace=wrap;html=1;shadow=0;labelBackgroundColor=none;strokeColor=#9673a6;strokeWidth=3;fillColor=#e1d5e7;fontFamily=Courier New;fontSize=16;align=center;spacing=5;fontStyle=1;arcSize=7;perimeterSpacing=2;" parent="1" vertex="1">
          <mxGeometry x="730" y="580" width="120" height="40" as="geometry" />
        </mxCell>
        <mxCell id="BuEvshFohfWNwcxQu9Q5-1803" value="Double" style="rounded=1;whiteSpace=wrap;html=1;shadow=0;labelBackgroundColor=none;strokeColor=#82b366;strokeWidth=3;fillColor=#d5e8d4;fontFamily=Courier New;fontSize=16;align=center;spacing=5;fontStyle=1;arcSize=7;perimeterSpacing=2;" parent="1" vertex="1">
          <mxGeometry x="960" y="345" width="120" height="40" as="geometry" />
        </mxCell>
        <mxCell id="BuEvshFohfWNwcxQu9Q5-1804" value="Float" style="rounded=1;whiteSpace=wrap;html=1;shadow=0;labelBackgroundColor=none;strokeColor=#82b366;strokeWidth=3;fillColor=#d5e8d4;fontFamily=Courier New;fontSize=16;align=center;spacing=5;fontStyle=1;arcSize=7;perimeterSpacing=2;" parent="1" vertex="1">
          <mxGeometry x="960" y="295" width="120" height="40" as="geometry" />
        </mxCell>
        <mxCell id="BuEvshFohfWNwcxQu9Q5-1805" value="" style="edgeStyle=none;rounded=1;jumpStyle=none;html=1;shadow=0;labelBackgroundColor=none;startArrow=none;startFill=0;jettySize=auto;orthogonalLoop=1;strokeColor=#82b366;strokeWidth=3;fontFamily=Courier New;fontSize=16;fontColor=default;spacing=5;fontStyle=1;fillColor=#d5e8d4;exitX=1;exitY=0.5;exitDx=0;exitDy=0;entryX=0;entryY=0.5;entryDx=0;entryDy=0;" parent="1" source="BuEvshFohfWNwcxQu9Q5-1800" target="BuEvshFohfWNwcxQu9Q5-1803" edge="1">
          <mxGeometry relative="1" as="geometry">
            <mxPoint x="951" y="289" as="sourcePoint" />
            <mxPoint x="987" y="289" as="targetPoint" />
            <Array as="points">
              <mxPoint x="930" y="340" />
              <mxPoint x="930" y="365" />
            </Array>
          </mxGeometry>
        </mxCell>
        <mxCell id="BuEvshFohfWNwcxQu9Q5-1806" value="" style="edgeStyle=none;rounded=1;jumpStyle=none;html=1;shadow=0;labelBackgroundColor=none;startArrow=none;startFill=0;jettySize=auto;orthogonalLoop=1;strokeColor=#82b366;strokeWidth=3;fontFamily=Courier New;fontSize=16;fontColor=default;spacing=5;fontStyle=1;fillColor=#d5e8d4;exitX=1;exitY=0.5;exitDx=0;exitDy=0;entryX=0;entryY=0.5;entryDx=0;entryDy=0;" parent="1" source="BuEvshFohfWNwcxQu9Q5-1800" target="BuEvshFohfWNwcxQu9Q5-1804" edge="1">
          <mxGeometry relative="1" as="geometry">
            <mxPoint x="951" y="267" as="sourcePoint" />
            <mxPoint x="940" y="290" as="targetPoint" />
            <Array as="points">
              <mxPoint x="930" y="340" />
              <mxPoint x="930" y="315" />
            </Array>
          </mxGeometry>
        </mxCell>
        <mxCell id="BuEvshFohfWNwcxQu9Q5-1807" value="Short" style="rounded=1;whiteSpace=wrap;html=1;shadow=0;labelBackgroundColor=none;strokeColor=#6c8ebf;strokeWidth=3;fillColor=#dae8fc;fontFamily=Courier New;fontSize=16;align=center;spacing=5;fontStyle=1;arcSize=7;perimeterSpacing=2;" parent="1" vertex="1">
          <mxGeometry x="1010" y="490" width="120" height="40" as="geometry" />
        </mxCell>
        <mxCell id="BuEvshFohfWNwcxQu9Q5-1808" value="Byte" style="rounded=1;whiteSpace=wrap;html=1;shadow=0;labelBackgroundColor=none;strokeColor=#6c8ebf;strokeWidth=3;fillColor=#dae8fc;fontFamily=Courier New;fontSize=16;align=center;spacing=5;fontStyle=1;arcSize=7;perimeterSpacing=2;" parent="1" vertex="1">
          <mxGeometry x="1010" y="440" width="120" height="40" as="geometry" />
        </mxCell>
        <mxCell id="BuEvshFohfWNwcxQu9Q5-1809" value="" style="edgeStyle=none;rounded=1;jumpStyle=none;html=1;shadow=0;labelBackgroundColor=none;startArrow=none;startFill=0;jettySize=auto;orthogonalLoop=1;strokeColor=#6c8ebf;strokeWidth=3;fontFamily=Courier New;fontSize=16;fontColor=default;spacing=5;fontStyle=1;fillColor=#dae8fc;exitX=1;exitY=0.5;exitDx=0;exitDy=0;entryX=0;entryY=0.5;entryDx=0;entryDy=0;" parent="1" source="BuEvshFohfWNwcxQu9Q5-1801" target="BuEvshFohfWNwcxQu9Q5-1807" edge="1">
          <mxGeometry relative="1" as="geometry">
            <mxPoint x="990" y="460" as="sourcePoint" />
            <mxPoint x="1055" y="399" as="targetPoint" />
            <Array as="points">
              <mxPoint x="970" y="540" />
              <mxPoint x="970" y="510" />
            </Array>
          </mxGeometry>
        </mxCell>
        <mxCell id="BuEvshFohfWNwcxQu9Q5-1810" value="" style="edgeStyle=none;rounded=1;jumpStyle=none;html=1;shadow=0;labelBackgroundColor=none;startArrow=none;startFill=0;jettySize=auto;orthogonalLoop=1;strokeColor=#6c8ebf;strokeWidth=3;fontFamily=Courier New;fontSize=16;fontColor=default;spacing=5;fontStyle=1;fillColor=#dae8fc;exitX=1;exitY=0.5;exitDx=0;exitDy=0;entryX=0;entryY=0.5;entryDx=0;entryDy=0;" parent="1" source="BuEvshFohfWNwcxQu9Q5-1801" target="BuEvshFohfWNwcxQu9Q5-1808" edge="1">
          <mxGeometry relative="1" as="geometry">
            <mxPoint x="990" y="439" as="sourcePoint" />
            <mxPoint x="1008" y="400" as="targetPoint" />
            <Array as="points">
              <mxPoint x="970" y="540" />
              <mxPoint x="970" y="460" />
            </Array>
          </mxGeometry>
        </mxCell>
        <mxCell id="BuEvshFohfWNwcxQu9Q5-1811" value="Long" style="rounded=1;whiteSpace=wrap;html=1;shadow=0;labelBackgroundColor=none;strokeColor=#6c8ebf;strokeWidth=3;fillColor=#dae8fc;fontFamily=Courier New;fontSize=16;align=center;spacing=5;fontStyle=1;arcSize=7;perimeterSpacing=2;" parent="1" vertex="1">
          <mxGeometry x="1010" y="590" width="120" height="40" as="geometry" />
        </mxCell>
        <mxCell id="BuEvshFohfWNwcxQu9Q5-1812" value="Int" style="rounded=1;whiteSpace=wrap;html=1;shadow=0;labelBackgroundColor=none;strokeColor=#6c8ebf;strokeWidth=3;fillColor=#dae8fc;fontFamily=Courier New;fontSize=16;align=center;spacing=5;fontStyle=1;arcSize=7;perimeterSpacing=2;" parent="1" vertex="1">
          <mxGeometry x="1010" y="540" width="120" height="40" as="geometry" />
        </mxCell>
        <mxCell id="BuEvshFohfWNwcxQu9Q5-1813" value="" style="edgeStyle=none;rounded=1;jumpStyle=none;html=1;shadow=0;labelBackgroundColor=none;startArrow=none;startFill=0;jettySize=auto;orthogonalLoop=1;strokeColor=#6c8ebf;strokeWidth=3;fontFamily=Courier New;fontSize=16;fontColor=default;spacing=5;fontStyle=1;fillColor=#dae8fc;exitX=1;exitY=0.5;exitDx=0;exitDy=0;entryX=0.016;entryY=0.5;entryDx=0;entryDy=0;entryPerimeter=0;" parent="1" source="BuEvshFohfWNwcxQu9Q5-1801" target="BuEvshFohfWNwcxQu9Q5-1811" edge="1">
          <mxGeometry relative="1" as="geometry">
            <mxPoint x="990" y="580" as="sourcePoint" />
            <mxPoint x="1010" y="630" as="targetPoint" />
            <Array as="points">
              <mxPoint x="970" y="540" />
              <mxPoint x="970" y="490" />
              <mxPoint x="970" y="610" />
            </Array>
          </mxGeometry>
        </mxCell>
        <mxCell id="BuEvshFohfWNwcxQu9Q5-1814" value="" style="edgeStyle=none;rounded=1;jumpStyle=none;html=1;shadow=0;labelBackgroundColor=none;startArrow=none;startFill=0;jettySize=auto;orthogonalLoop=1;strokeColor=#6c8ebf;strokeWidth=3;fontFamily=Courier New;fontSize=16;fontColor=default;spacing=5;fontStyle=1;fillColor=#dae8fc;exitX=1;exitY=0.5;exitDx=0;exitDy=0;entryX=0;entryY=0.5;entryDx=0;entryDy=0;" parent="1" source="BuEvshFohfWNwcxQu9Q5-1801" target="BuEvshFohfWNwcxQu9Q5-1812" edge="1">
          <mxGeometry relative="1" as="geometry">
            <mxPoint x="990" y="559" as="sourcePoint" />
            <mxPoint x="1008" y="520" as="targetPoint" />
            <Array as="points">
              <mxPoint x="970" y="540" />
              <mxPoint x="970" y="560" />
            </Array>
          </mxGeometry>
        </mxCell>
        <mxCell id="BuEvshFohfWNwcxQu9Q5-1815" value="String" style="rounded=1;whiteSpace=wrap;html=1;shadow=0;labelBackgroundColor=none;strokeColor=#9673a6;strokeWidth=3;fillColor=#e1d5e7;fontFamily=Courier New;fontSize=16;align=center;spacing=5;fontStyle=1;arcSize=7;perimeterSpacing=2;" parent="1" vertex="1">
          <mxGeometry x="810" y="660" width="120" height="40" as="geometry" />
        </mxCell>
        <mxCell id="BuEvshFohfWNwcxQu9Q5-1816" value="Etc." style="rounded=1;whiteSpace=wrap;html=1;shadow=0;labelBackgroundColor=none;strokeColor=#9673a6;strokeWidth=3;fillColor=#e1d5e7;fontFamily=Courier New;fontSize=16;align=center;spacing=5;fontStyle=3;arcSize=7;perimeterSpacing=2;horizontal=1;" parent="1" vertex="1">
          <mxGeometry x="650" y="660" width="120" height="40" as="geometry" />
        </mxCell>
        <mxCell id="BuEvshFohfWNwcxQu9Q5-1817" value="" style="edgeStyle=none;rounded=1;jumpStyle=none;html=1;shadow=0;labelBackgroundColor=none;startArrow=none;startFill=0;jettySize=auto;orthogonalLoop=1;strokeColor=#9673a6;strokeWidth=3;fontFamily=Courier New;fontSize=16;fontColor=default;spacing=5;fontStyle=1;fillColor=#e1d5e7;exitX=0.5;exitY=1;exitDx=0;exitDy=0;entryX=0.5;entryY=0;entryDx=0;entryDy=0;" parent="1" source="BuEvshFohfWNwcxQu9Q5-1802" target="BuEvshFohfWNwcxQu9Q5-1815" edge="1">
          <mxGeometry relative="1" as="geometry">
            <mxPoint x="840" y="500" as="sourcePoint" />
            <mxPoint x="868" y="706" as="targetPoint" />
            <Array as="points">
              <mxPoint x="790" y="630" />
              <mxPoint x="870" y="630" />
            </Array>
          </mxGeometry>
        </mxCell>
        <mxCell id="BuEvshFohfWNwcxQu9Q5-1818" value="" style="edgeStyle=none;rounded=1;jumpStyle=none;html=1;shadow=0;labelBackgroundColor=none;startArrow=none;startFill=0;jettySize=auto;orthogonalLoop=1;strokeColor=#9673a6;strokeWidth=3;fontFamily=Courier New;fontSize=16;fontColor=default;spacing=5;fontStyle=1;fillColor=#e1d5e7;exitX=0.5;exitY=1;exitDx=0;exitDy=0;entryX=0.5;entryY=0;entryDx=0;entryDy=0;" parent="1" source="BuEvshFohfWNwcxQu9Q5-1802" target="BuEvshFohfWNwcxQu9Q5-1816" edge="1">
          <mxGeometry relative="1" as="geometry">
            <mxPoint x="515" y="650" as="sourcePoint" />
            <mxPoint x="594" y="696" as="targetPoint" />
            <Array as="points">
              <mxPoint x="790" y="630" />
              <mxPoint x="710" y="630" />
            </Array>
          </mxGeometry>
        </mxCell>
        <mxCell id="BuEvshFohfWNwcxQu9Q5-1819" value="Syntax" style="rounded=1;whiteSpace=wrap;html=1;shadow=0;labelBackgroundColor=none;strokeColor=#666666;strokeWidth=3;fillColor=#f5f5f5;fontFamily=Courier New;fontSize=16;align=center;spacing=5;fontStyle=1;arcSize=7;perimeterSpacing=2;fontColor=#333333;" parent="1" vertex="1">
          <mxGeometry x="380" y="440" width="120" height="40" as="geometry" />
        </mxCell>
        <mxCell id="BuEvshFohfWNwcxQu9Q5-1820" value="" style="edgeStyle=none;rounded=1;jumpStyle=none;html=1;shadow=0;labelBackgroundColor=none;startArrow=none;startFill=0;endArrow=classic;endFill=1;jettySize=auto;orthogonalLoop=1;strokeColor=#666666;strokeWidth=3;fontFamily=Courier New;fontSize=16;fontColor=default;spacing=5;fontStyle=1;entryX=0.5;entryY=1;entryDx=0;entryDy=0;fillColor=#f5f5f5;exitX=0;exitY=0.5;exitDx=0;exitDy=0;" parent="1" source="BuEvshFohfWNwcxQu9Q5-1799" target="BuEvshFohfWNwcxQu9Q5-1819" edge="1">
          <mxGeometry relative="1" as="geometry">
            <mxPoint x="560" y="570" as="sourcePoint" />
            <mxPoint x="440" y="490" as="targetPoint" />
            <Array as="points">
              <mxPoint x="440" y="541" />
            </Array>
          </mxGeometry>
        </mxCell>
        <mxCell id="BuEvshFohfWNwcxQu9Q5-1821" value="" style="edgeStyle=none;rounded=1;jumpStyle=none;html=1;shadow=0;labelBackgroundColor=none;startArrow=none;startFill=0;jettySize=auto;orthogonalLoop=1;strokeWidth=3;fontFamily=Courier New;fontSize=16;fontColor=default;spacing=5;fontStyle=1;exitX=0;exitY=0.5;exitDx=0;exitDy=0;fillColor=#e1d5e7;strokeColor=#9673a6;entryX=0.5;entryY=0;entryDx=0;entryDy=0;" parent="1" source="BuEvshFohfWNwcxQu9Q5-1819" target="BuEvshFohfWNwcxQu9Q5-1853" edge="1">
          <mxGeometry relative="1" as="geometry">
            <mxPoint x="-188" y="551.5" as="sourcePoint" />
            <mxPoint x="250" y="480" as="targetPoint" />
            <Array as="points">
              <mxPoint x="240" y="460" />
            </Array>
          </mxGeometry>
        </mxCell>
        <mxCell id="BuEvshFohfWNwcxQu9Q5-1822" value="" style="edgeStyle=none;rounded=1;jumpStyle=none;html=1;shadow=0;labelBackgroundColor=none;startArrow=none;startFill=0;jettySize=auto;orthogonalLoop=1;strokeWidth=3;fontFamily=Courier New;fontSize=16;fontColor=default;spacing=5;fontStyle=1;exitX=0;exitY=0.5;exitDx=0;exitDy=0;fillColor=#dae8fc;strokeColor=#6c8ebf;entryX=1;entryY=0.5;entryDx=0;entryDy=0;" parent="1" source="BuEvshFohfWNwcxQu9Q5-1824" target="BuEvshFohfWNwcxQu9Q5-1848" edge="1">
          <mxGeometry relative="1" as="geometry">
            <mxPoint x="-258" y="529.5" as="sourcePoint" />
            <mxPoint x="180" y="440" as="targetPoint" />
            <Array as="points">
              <mxPoint x="230" y="360" />
              <mxPoint x="230" y="430" />
            </Array>
          </mxGeometry>
        </mxCell>
        <mxCell id="BuEvshFohfWNwcxQu9Q5-1823" value="" style="edgeStyle=none;rounded=1;jumpStyle=none;html=1;shadow=0;labelBackgroundColor=none;startArrow=none;startFill=0;jettySize=auto;orthogonalLoop=1;strokeWidth=3;fontFamily=Courier New;fontSize=16;fontColor=default;spacing=5;fontStyle=1;entryX=0.5;entryY=1;entryDx=0;entryDy=0;exitX=0;exitY=0.5;exitDx=0;exitDy=0;fillColor=#dae8fc;strokeColor=#6c8ebf;" parent="1" target="BuEvshFohfWNwcxQu9Q5-1824" edge="1">
          <mxGeometry relative="1" as="geometry">
            <mxPoint x="368" y="460" as="sourcePoint" />
            <mxPoint x="-167.38831615120307" y="336" as="targetPoint" />
            <Array as="points">
              <mxPoint x="300" y="460" />
            </Array>
          </mxGeometry>
        </mxCell>
        <mxCell id="BuEvshFohfWNwcxQu9Q5-1824" value="OOP" style="rounded=1;whiteSpace=wrap;html=1;shadow=0;labelBackgroundColor=none;strokeColor=#6c8ebf;strokeWidth=3;fillColor=#dae8fc;fontFamily=Courier New;fontSize=16;align=center;spacing=5;fontStyle=1;arcSize=7;perimeterSpacing=2;" parent="1" vertex="1">
          <mxGeometry x="240" y="340" width="120" height="40" as="geometry" />
        </mxCell>
        <mxCell id="BuEvshFohfWNwcxQu9Q5-1826" value="Lambdas﻿" style="rounded=1;whiteSpace=wrap;html=1;shadow=0;labelBackgroundColor=none;strokeColor=#b85450;strokeWidth=3;fillColor=#f8cecc;fontFamily=Courier New;fontSize=16;align=center;spacing=5;fontStyle=1;arcSize=7;perimeterSpacing=2;glass=0;" parent="1" vertex="1">
          <mxGeometry x="100" y="519.5" width="120" height="40" as="geometry" />
        </mxCell>
        <mxCell id="BuEvshFohfWNwcxQu9Q5-1834" value="Static typing" style="rounded=1;whiteSpace=wrap;html=1;shadow=0;labelBackgroundColor=none;strokeColor=#82b366;strokeWidth=3;fillColor=#d5e8d4;fontFamily=Courier New;fontSize=16;align=center;spacing=5;fontStyle=1;arcSize=7;perimeterSpacing=2;" parent="1" vertex="1">
          <mxGeometry x="260" y="519.5" width="120" height="40" as="geometry" />
        </mxCell>
        <mxCell id="BuEvshFohfWNwcxQu9Q5-1841" value="" style="edgeStyle=none;rounded=1;jumpStyle=none;html=1;shadow=0;labelBackgroundColor=none;startArrow=none;startFill=0;jettySize=auto;orthogonalLoop=1;strokeColor=#b85450;strokeWidth=3;fontFamily=Courier New;fontSize=16;fontColor=default;spacing=5;fontStyle=1;fillColor=#f8cecc;entryX=0.5;entryY=0;entryDx=0;entryDy=0;exitX=0;exitY=0.5;exitDx=0;exitDy=0;" parent="1" source="BuEvshFohfWNwcxQu9Q5-1819" target="BuEvshFohfWNwcxQu9Q5-1826" edge="1">
          <mxGeometry relative="1" as="geometry">
            <mxPoint x="-50" y="610" as="sourcePoint" />
            <mxPoint x="60" y="680" as="targetPoint" />
            <Array as="points">
              <mxPoint x="160" y="460" />
            </Array>
          </mxGeometry>
        </mxCell>
        <mxCell id="BuEvshFohfWNwcxQu9Q5-1843" value="" style="edgeStyle=none;rounded=1;jumpStyle=none;html=1;shadow=0;labelBackgroundColor=none;startArrow=none;startFill=0;jettySize=auto;orthogonalLoop=1;strokeWidth=3;fontFamily=Courier New;fontSize=16;fontColor=default;spacing=5;fontStyle=1;fillColor=#d5e8d4;strokeColor=#82b366;entryX=0.5;entryY=0;entryDx=0;entryDy=0;exitX=0;exitY=0.5;exitDx=0;exitDy=0;" parent="1" source="BuEvshFohfWNwcxQu9Q5-1819" target="BuEvshFohfWNwcxQu9Q5-1834" edge="1">
          <mxGeometry relative="1" as="geometry">
            <mxPoint x="350" y="490" as="sourcePoint" />
            <mxPoint x="290" y="544.25" as="targetPoint" />
            <Array as="points">
              <mxPoint x="320" y="460" />
            </Array>
          </mxGeometry>
        </mxCell>
        <mxCell id="BuEvshFohfWNwcxQu9Q5-1848" value="Polymorphism" style="rounded=1;whiteSpace=wrap;html=1;shadow=0;labelBackgroundColor=none;strokeColor=#6c8ebf;strokeWidth=3;fillColor=#dae8fc;fontFamily=Courier New;fontSize=16;align=center;spacing=5;fontStyle=1;arcSize=7;perimeterSpacing=2;" parent="1" vertex="1">
          <mxGeometry x="50" y="410" width="140" height="40" as="geometry" />
        </mxCell>
        <mxCell id="BuEvshFohfWNwcxQu9Q5-1849" value="" style="edgeStyle=none;rounded=1;jumpStyle=none;html=1;shadow=0;labelBackgroundColor=none;startArrow=none;startFill=0;jettySize=auto;orthogonalLoop=1;strokeWidth=3;fontFamily=Courier New;fontSize=16;fontColor=default;spacing=5;fontStyle=1;entryX=1;entryY=0.5;entryDx=0;entryDy=0;exitX=0;exitY=0.5;exitDx=0;exitDy=0;fillColor=#dae8fc;strokeColor=#6c8ebf;" parent="1" source="BuEvshFohfWNwcxQu9Q5-1824" target="BuEvshFohfWNwcxQu9Q5-1850" edge="1">
          <mxGeometry relative="1" as="geometry">
            <mxPoint x="-598" y="357.5" as="sourcePoint" />
            <mxPoint x="-467.38831615120307" y="186" as="targetPoint" />
            <Array as="points">
              <mxPoint x="230" y="360" />
              <mxPoint x="230" y="380" />
            </Array>
          </mxGeometry>
        </mxCell>
        <mxCell id="BuEvshFohfWNwcxQu9Q5-1850" value="Encapsulation" style="rounded=1;whiteSpace=wrap;html=1;shadow=0;labelBackgroundColor=none;strokeColor=#6c8ebf;strokeWidth=3;fillColor=#dae8fc;fontFamily=Courier New;fontSize=16;align=center;spacing=5;fontStyle=1;arcSize=7;perimeterSpacing=2;" parent="1" vertex="1">
          <mxGeometry x="50" y="360" width="140" height="40" as="geometry" />
        </mxCell>
        <mxCell id="BuEvshFohfWNwcxQu9Q5-1851" value="Objects" style="rounded=1;whiteSpace=wrap;html=1;shadow=0;labelBackgroundColor=none;strokeColor=#6c8ebf;strokeWidth=3;fillColor=#dae8fc;fontFamily=Courier New;fontSize=16;align=center;spacing=5;fontStyle=1;arcSize=7;perimeterSpacing=2;" parent="1" vertex="1">
          <mxGeometry x="50" y="310" width="140" height="40" as="geometry" />
        </mxCell>
        <mxCell id="BuEvshFohfWNwcxQu9Q5-1852" value="" style="edgeStyle=none;rounded=1;jumpStyle=none;html=1;shadow=0;labelBackgroundColor=none;startArrow=none;startFill=0;jettySize=auto;orthogonalLoop=1;strokeWidth=3;fontFamily=Courier New;fontSize=16;fontColor=default;spacing=5;fontStyle=1;exitX=0;exitY=0.5;exitDx=0;exitDy=0;fillColor=#dae8fc;strokeColor=#6c8ebf;entryX=1;entryY=0.5;entryDx=0;entryDy=0;" parent="1" source="BuEvshFohfWNwcxQu9Q5-1824" target="BuEvshFohfWNwcxQu9Q5-1851" edge="1">
          <mxGeometry relative="1" as="geometry">
            <mxPoint x="-64" y="385.25" as="sourcePoint" />
            <mxPoint x="-120" y="394.25" as="targetPoint" />
            <Array as="points">
              <mxPoint x="230" y="360" />
              <mxPoint x="230" y="330" />
            </Array>
          </mxGeometry>
        </mxCell>
        <mxCell id="BuEvshFohfWNwcxQu9Q5-1853" value="Functions (Procedures)" style="rounded=1;whiteSpace=wrap;html=1;shadow=0;labelBackgroundColor=none;strokeColor=#9673a6;strokeWidth=3;fillColor=#e1d5e7;fontFamily=Courier New;fontSize=16;align=center;spacing=5;fontStyle=1;arcSize=7;perimeterSpacing=2;" parent="1" vertex="1">
          <mxGeometry x="180" y="580" width="120" height="40" as="geometry" />
        </mxCell>
        <mxCell id="BuEvshFohfWNwcxQu9Q5-1856" value="Classes" style="rounded=1;whiteSpace=wrap;html=1;shadow=0;labelBackgroundColor=none;strokeColor=#6c8ebf;strokeWidth=3;fillColor=#dae8fc;fontFamily=Courier New;fontSize=16;align=center;spacing=5;fontStyle=1;arcSize=7;perimeterSpacing=2;" parent="1" vertex="1">
          <mxGeometry x="50" y="260" width="140" height="40" as="geometry" />
        </mxCell>
        <mxCell id="BuEvshFohfWNwcxQu9Q5-1857" value="" style="edgeStyle=none;rounded=1;jumpStyle=none;html=1;shadow=0;labelBackgroundColor=none;startArrow=none;startFill=0;jettySize=auto;orthogonalLoop=1;strokeWidth=3;fontFamily=Courier New;fontSize=16;fontColor=default;spacing=5;fontStyle=1;exitX=0;exitY=0.5;exitDx=0;exitDy=0;fillColor=#dae8fc;strokeColor=#6c8ebf;entryX=1;entryY=0.5;entryDx=0;entryDy=0;" parent="1" source="BuEvshFohfWNwcxQu9Q5-1824" target="BuEvshFohfWNwcxQu9Q5-1856" edge="1">
          <mxGeometry relative="1" as="geometry">
            <mxPoint x="243" y="325" as="sourcePoint" />
            <mxPoint x="197" y="275" as="targetPoint" />
            <Array as="points">
              <mxPoint x="230" y="360" />
              <mxPoint x="230" y="280" />
            </Array>
          </mxGeometry>
        </mxCell>
        <mxCell id="BuEvshFohfWNwcxQu9Q5-1860" value="Local functions﻿" style="rounded=1;whiteSpace=wrap;html=1;shadow=0;labelBackgroundColor=none;strokeColor=#b85450;strokeWidth=3;fillColor=#f8cecc;fontFamily=Courier New;fontSize=16;align=center;spacing=5;fontStyle=1;arcSize=7;perimeterSpacing=2;glass=0;" parent="1" vertex="1">
          <mxGeometry x="20" y="580" width="120" height="40" as="geometry" />
        </mxCell>
        <mxCell id="BuEvshFohfWNwcxQu9Q5-1861" value="" style="edgeStyle=none;rounded=1;jumpStyle=none;html=1;shadow=0;labelBackgroundColor=none;startArrow=none;startFill=0;jettySize=auto;orthogonalLoop=1;strokeColor=#b85450;strokeWidth=3;fontFamily=Courier New;fontSize=16;fontColor=default;spacing=5;fontStyle=1;fillColor=#f8cecc;entryX=0.5;entryY=0;entryDx=0;entryDy=0;exitX=0;exitY=0.5;exitDx=0;exitDy=0;" parent="1" source="BuEvshFohfWNwcxQu9Q5-1819" target="BuEvshFohfWNwcxQu9Q5-1860" edge="1">
          <mxGeometry relative="1" as="geometry">
            <mxPoint x="288" y="482" as="sourcePoint" />
            <mxPoint x="90" y="540" as="targetPoint" />
            <Array as="points">
              <mxPoint x="80" y="460" />
            </Array>
          </mxGeometry>
        </mxCell>
        <mxCell id="BuEvshFohfWNwcxQu9Q5-1862" value="Char" style="rounded=1;whiteSpace=wrap;html=1;shadow=0;labelBackgroundColor=none;strokeColor=#9673a6;strokeWidth=3;fillColor=#e1d5e7;fontFamily=Courier New;fontSize=16;align=center;spacing=5;fontStyle=1;arcSize=7;perimeterSpacing=2;horizontal=1;" parent="1" vertex="1">
          <mxGeometry x="730" y="718" width="120" height="40" as="geometry" />
        </mxCell>
        <mxCell id="BuEvshFohfWNwcxQu9Q5-1863" value="" style="edgeStyle=none;rounded=1;jumpStyle=none;html=1;shadow=0;labelBackgroundColor=none;startArrow=none;startFill=0;jettySize=auto;orthogonalLoop=1;strokeColor=#9673a6;strokeWidth=3;fontFamily=Courier New;fontSize=16;fontColor=default;spacing=5;fontStyle=1;fillColor=#e1d5e7;exitX=0.5;exitY=1;exitDx=0;exitDy=0;entryX=0.5;entryY=0;entryDx=0;entryDy=0;" parent="1" source="BuEvshFohfWNwcxQu9Q5-1802" target="BuEvshFohfWNwcxQu9Q5-1862" edge="1">
          <mxGeometry relative="1" as="geometry">
            <mxPoint x="860" y="680" as="sourcePoint" />
            <mxPoint x="664" y="754" as="targetPoint" />
            <Array as="points">
              <mxPoint x="790" y="688" />
            </Array>
          </mxGeometry>
        </mxCell>
        <mxCell id="bvgNdYfYAa7kArjRnT4o-1779" value="Methods" style="rounded=1;whiteSpace=wrap;html=1;shadow=0;labelBackgroundColor=none;strokeColor=#6c8ebf;strokeWidth=3;fillColor=#dae8fc;fontFamily=Courier New;fontSize=16;align=center;spacing=5;fontStyle=1;arcSize=7;perimeterSpacing=2;" vertex="1" parent="1">
          <mxGeometry x="401" y="365" width="99" height="40" as="geometry" />
        </mxCell>
        <mxCell id="bvgNdYfYAa7kArjRnT4o-1780" value="Fields" style="rounded=1;whiteSpace=wrap;html=1;shadow=0;labelBackgroundColor=none;strokeColor=#6c8ebf;strokeWidth=3;fillColor=#dae8fc;fontFamily=Courier New;fontSize=16;align=center;spacing=5;fontStyle=1;arcSize=7;perimeterSpacing=2;" vertex="1" parent="1">
          <mxGeometry x="400" y="315" width="100" height="40" as="geometry" />
        </mxCell>
        <mxCell id="bvgNdYfYAa7kArjRnT4o-1781" value="" style="edgeStyle=none;rounded=1;jumpStyle=none;html=1;shadow=0;labelBackgroundColor=none;startArrow=none;startFill=0;jettySize=auto;orthogonalLoop=1;strokeColor=#6c8ebf;strokeWidth=3;fontFamily=Courier New;fontSize=16;fontColor=default;spacing=5;fontStyle=1;fillColor=#dae8fc;exitX=1;exitY=0.5;exitDx=0;exitDy=0;entryX=0;entryY=0.5;entryDx=0;entryDy=0;" edge="1" parent="1" target="bvgNdYfYAa7kArjRnT4o-1779" source="BuEvshFohfWNwcxQu9Q5-1824">
          <mxGeometry relative="1" as="geometry">
            <mxPoint x="362" y="369" as="sourcePoint" />
            <mxPoint x="427" y="318" as="targetPoint" />
            <Array as="points">
              <mxPoint x="370" y="360" />
              <mxPoint x="370" y="385" />
            </Array>
          </mxGeometry>
        </mxCell>
        <mxCell id="bvgNdYfYAa7kArjRnT4o-1782" value="" style="edgeStyle=none;rounded=1;jumpStyle=none;html=1;shadow=0;labelBackgroundColor=none;startArrow=none;startFill=0;jettySize=auto;orthogonalLoop=1;strokeColor=#6c8ebf;strokeWidth=3;fontFamily=Courier New;fontSize=16;fontColor=default;spacing=5;fontStyle=1;fillColor=#dae8fc;entryX=0;entryY=0.5;entryDx=0;entryDy=0;exitX=1;exitY=0.5;exitDx=0;exitDy=0;" edge="1" parent="1" target="bvgNdYfYAa7kArjRnT4o-1780" source="BuEvshFohfWNwcxQu9Q5-1824">
          <mxGeometry relative="1" as="geometry">
            <mxPoint x="364" y="354" as="sourcePoint" />
            <mxPoint x="390" y="324" as="targetPoint" />
            <Array as="points">
              <mxPoint x="370" y="360" />
              <mxPoint x="370" y="335" />
            </Array>
          </mxGeometry>
        </mxCell>
      </root>
    </mxGraphModel>
  </diagram>
</mxfile>
